{"title":"Guardians of the Galaxy(2014)MP-4[DaScubaDude]","uid":12350460,"size":1475695729,"categoryP":"video","categoryS":"movies","magnet":"?xt=urn:btih:26525d2d916dbeb896442832bb919d91cbc161d4&amp;dn=Guardians+of+the+Galaxy%282014%29MP-4%5BDaScubaDude%5D&amp;tr=udp%3A%2F%2Ftracker.openbittorrent.com%3A80&amp;tr=udp%3A%2F%2Fopen.demonii.com%3A1337&amp;tr=udp%3A%2F%2Ftracker.coppersurfer.tk%3A6969&amp;tr=udp%3A%2F%2Fexodus.desync.com%3A6969","seeders":5,"leechers":0,"uploader":"dascuba","files":1,"time":1441413175,"description":"Guardians of the Galaxy (2014)\nPG-13  |  121 min  |  Action, Adventure, Sci-Fi  |  1 August 2014 (USA)\n8.1 Your rating:   -/10   Ratings: 8.1/10 from 543,306 users   Metascore: 76/100 \nReviews: 1,046 user | 637 critic | 46 from Metacritic.com\nA group of intergalactic criminals are forced to work together to stop a fanatical warrior from taking control of the universe.\n\nDirector: James Gunn\nWriters: James Gunn, Nicole Perlman,\n\nGeneral\nComplete name     : C:Guardians of the GalaxyGUARDIANS_OF_THE_GALAXY_Title1.mp4\nFormat                                   : MPEG-4\nFormat profile                           : Base Media\nCodec ID                                 : isom\nFile size                                : 1.37 GiB\nDuration                                 : 2h 0mn\nOverall bit rate mode                    : Constant\nOverall bit rate                         : 1 630 Kbps\nMovie name                               : GUARDIANS_OF_THE_GALAXY\nGenre                                    : Action\nWriting application                      : Lavf54.6.100\n\nVideo\nID                                       : 1\nFormat                                   : MPEG-4 Visual\nFormat settings, BVOP                    : No\nFormat settings, QPel                    : No\nFormat settings, GMC                     : No warppoints\nFormat settings, Matrix                  : Default (H.263)\nCodec ID                                 : 20\nDuration                                 : 2h 0mn\nBit rate mode                            : Constant\nBit rate                                 : 1 496 Kbps\nWidth                                    : 720 pixels\nHeight                                   : 404 pixels\nDisplay aspect ratio                     : 16:9\nFrame rate mode                          : Constant\nFrame rate                               : 29.970 fps\nColor space                              : YUV\nChroma subsampling                       : 4:2:0\nBit depth                                : 8 bits\nScan type                                : Progressive\nCompression mode                         : Lossy\nBits/(Pixel*Frame)                       : 0.172\nStream size                              : 1.26 GiB (92%)\nWriting library                          : Lavc54.23.100\n\nAudio\nID                                       : 2\nFormat                                   : MPEG Audio\nFormat version                           : Version 1\nFormat profile                           : Layer 3\nCodec ID                                 : 6B\nDuration                                 : 2h 0mn\nBit rate mode                            : Constant\nBit rate                                 : 128 Kbps\nChannel(s)                               : 2 channels\nSampling rate                            : 44.1 KHz\nCompression mode                         : Lossy\nStream size                              : 111 MiB (8%)\nWriting library                          : LAME3.99.5","torrent":{"xt":"urn:btih:26525d2d916dbeb896442832bb919d91cbc161d4","amp;dn":"Guardians+of+the+Galaxy%282014%29MP-4%5BDaScubaDude%5D","amp;tr":["udp%3A%2F%2Ftracker.openbittorrent.com%3A80","udp%3A%2F%2Fopen.demonii.com%3A1337","udp%3A%2F%2Ftracker.coppersurfer.tk%3A6969","udp%3A%2F%2Fexodus.desync.com%3A6969"],"infoHash":"26525d2d916dbeb896442832bb919d91cbc161d4","infoHashBuffer":{"type":"Buffer","data":[38,82,93,45,145,109,190,184,150,68,40,50,187,145,157,145,203,193,97,212]},"announce":[],"urlList":[]}}